<svg xmlns="http://www.w3.org/2000/svg" width="40" height="40" viewBox="0 0 40 40"><defs><clipPath id="wu1ua"><path fill="#fff" d="M20 40c11.046 0 20-8.954 20-20S31.046 0 20 0 0 8.954 0 20s8.954 20 20 20z"/></clipPath></defs><g><g><path fill="none" stroke="#fff" stroke-miterlimit="20" stroke-width="4" d="M20 40c11.046 0 20-8.954 20-20S31.046 0 20 0 0 8.954 0 20s8.954 20 20 20z" clip-path="url(&quot;#wu1ua&quot;)"/></g><g><path fill="#fff" d="M26 15.771h-4.086V13.28c0-.936.666-1.154 1.136-1.154h2.884V8.014L21.962 8c-4.409 0-5.413 3.067-5.413 5.03v2.741H14v4.237h2.549V32h5.365V20.008h3.618z"/></g></g></svg>