<svg xmlns="http://www.w3.org/2000/svg" width="40" height="40" viewBox="0 0 40 40"><defs><clipPath id="o0j7a"><path fill="#fff" d="M60 80c11.046 0 20-8.954 20-20s-8.954-20-20-20-20 8.954-20 20 8.954 20 20 20z"/></clipPath></defs><g><g><g><path fill="none" stroke="#fff" stroke-miterlimit="20" stroke-width="4" d="M60 80c11.046 0 20-8.954 20-20s-8.954-20-20-20-20 8.954-20 20 8.954 20 20 20z" clip-path="url(&quot;#o0j7a&quot;)"/></g><g><path fill="#fff" d="M66 55.771h-4.086V53.28c0-.936.666-1.154 1.136-1.154h2.884v-4.112L61.962 48c-4.409 0-5.413 3.067-5.413 5.03v2.741H54v4.237h2.549V72h5.365V60.008h3.618z"/></g></g></g></svg>