<svg xmlns="http://www.w3.org/2000/svg" width="40" height="40" viewBox="0 0 40 40"><defs><clipPath id="6va7a"><path fill="#fff" d="M20 40c11.046 0 20-8.954 20-20S31.046 0 20 0 0 8.954 0 20s8.954 20 20 20z"/></clipPath></defs><g><g><g><path fill="none" stroke="#fff" stroke-miterlimit="20" stroke-width="4" d="M20 40c11.046 0 20-8.954 20-20S31.046 0 20 0 0 8.954 0 20s8.954 20 20 20z" clip-path="url(&quot;#6va7a&quot;)"/></g><g><path fill="#fff" d="M14.5 32A6.507 6.507 0 0 1 8 25.5v-11C8 10.915 10.916 8 14.5 8h11c3.584 0 6.5 2.915 6.5 6.5v11c0 3.585-2.916 6.5-6.5 6.5zm0-22a4.505 4.505 0 0 0-4.5 4.5v11c0 2.481 2.019 4.5 4.5 4.5h11c2.481 0 4.5-2.019 4.5-4.5v-11c0-2.481-2.019-4.5-4.5-4.5zM14 20c0-3.309 2.692-6 6-6s6 2.691 6 6-2.692 6-6 6-6-2.691-6-6zm2 0c0 2.206 1.794 4 4 4s4-1.794 4-4-1.794-4-4-4-4 1.794-4 4zm11.75-6.375a1.376 1.376 0 1 1-2.751-.001 1.376 1.376 0 0 1 2.751.001z"/></g></g></g></svg>