<svg xmlns="http://www.w3.org/2000/svg" width="30" height="40" viewBox="0 0 30 40"><defs><clipPath id="li4fa"><path fill="#fff" d="M0 15C0 4 6.716 0 15 0c8.284 0 15 4 15 15S15.517 40 15.517 40 0 26 0 15zm14.982 4.3c2.758 0 4.994-2.159 4.994-4.822 0-2.664-2.236-4.823-4.994-4.823-2.758 0-4.994 2.16-4.994 4.823 0 2.663 2.236 4.822 4.994 4.822z"/></clipPath></defs><g><g><path fill="none" stroke="#fff" stroke-miterlimit="20" stroke-width="6" d="M0 15C0 4 6.716 0 15 0c8.284 0 15 4 15 15S15.517 40 15.517 40 0 26 0 15zm14.982 4.3c2.758 0 4.994-2.159 4.994-4.822 0-2.664-2.236-4.823-4.994-4.823-2.758 0-4.994 2.16-4.994 4.823 0 2.663 2.236 4.822 4.994 4.822z" clip-path="url(&quot;#li4fa&quot;)"/></g></g></svg>