<svg xmlns="http://www.w3.org/2000/svg" width="200" height="64" viewBox="0 0 200 64"><g><g><g><path fill="#fff" d="M100.309 29.197c1.239-.16 2.42-.352 3.332-1.146.934-.815 1.347-1.998 1.511-3.228.266-2.06-.268-4.229-2.064-5.278-1.156-.676-2.639-.805-4.14-.805-.205.112-.605-.044-.772.136-.223 0-.64-.012-.783.142-.104 0-.208.006-.274.081-.672 0-1.565.548-2.04.991-.176.167-.293.405-.51.527 0 .194-.272.601-.422.718 0 .08-.027.143-.08.193 0 .11-.063.235-.138.303 0 .138-.049.321-.143.415 0 .183-.019.51-.136.638l-.05 1.053c.01.708.157 1.404.348 2.039.78 2.625 3.618 3.572 6.36 3.221"/></g><g><path fill="#fff" d="M104.772 41.047c2.158-2.37 1.87-7.541-1.25-8.977-1.461-.672-3.087-.7-4.93-.7-.226.192-.718.008-.92.223-.172 0-.446.017-.554.136-.138 0-.354.036-.441.137-.193 0-.5.13-.616.278-.334 0-1.128.655-1.33.936-.176.245-.338.614-.585.799 0 .147-.117.36-.218.446 0 .122-.05.26-.142.334 0 .148-.036.34-.137.44 0 .176-.022.44-.137.552 0 .58-.085 1.191-.056 1.802.052 1.087.4 2.271 1 3.098A4.878 4.878 0 0 0 96 41.957c.47.265 1 .377 1.53.52 2.313.607 5.68.303 7.243-1.43"/></g><g><path fill="#fff" d="M199.571 5.914c-1.023.82-5.228 2.436-5.228 2.436s1.17 2.439 1.196 3.764c0 0-1.305 1.22-5.063 2.005.427 2.743-.56 3.88-.56 3.88-.933.99-3.52 1.322-5.112 1.425 0 3.6-1.001 4.059-1.001 4.059-.506.597-4.575.866-5.955.953-.787 4.008-2.833 4.708-2.833 4.708-1.826.209-4.083.044-6.591-.33-.346 3.445-1.307 3.686-1.307 3.686-1.053.525-7.137.352-7.137.352-.275.016-.536-.028-.9-.082-.726 3.438-1.643 3.593-1.643 3.593s-1.787.48-5.884-.407c-.802-.174-1.248-.043-1.787-.29-.815 2.683-1.7 2.73-1.7 2.73-.96.293-6.224-1.345-6.224-1.345-.616 1.911-2.132 2.458-2.132 2.458-1.33-.057-2.941-.605-3.79-.982-2.729 9.256-11.125 16.557-20.194 20.063l-1.33 2.743-3.23-1.234-1.686 2.548-2.94-1.595-1.992 2.412-2.645-1.927-2.315 2.213-2.325-2.15-2.637 1.902-2.001-2.417-2.936 1.59-1.68-2.57-3.216 1.214-1.369-2.74c-9.783-3.788-18.091-11.032-20.584-21.27 0 0-4.85 1.714-6.18 1.174-.873-.354-1.75-2.373-1.75-2.373s-6.003 1.573-7.29 1.178c-1.374-.427-2.232-3.15-2.232-3.15s-6.91.23-8.11-.3c-1.124-.499-1.65-3.263-1.65-3.263-1.188.319-7.537-.632-8.332-.949-.792-.316-2.613-3.634-2.613-3.634s-5.93-.605-6.59-1.19c-.39-.34-.952-4.031-.952-4.031s-5.636-1.42-5.954-1.82c-.312-.396-.312-3.553-.312-3.553l-5.638-2.532.792-3.797L.24 6.146 0 5.352s2.459-2.766 2.696-3.08c0 0 .398-.323.934-.192 1.104.274 10.26 1.06 18.359.506 5.32-.363 12.371-.474 15.782-.474 3.411 0 17.854.87 21.345.79 3.048-.068 16.998-1.267 22.82.752C87.532 1.246 93.696 0 99.59 0c6.505 0 11.987.951 18.014 3.872 3.716-1.33 9.746-1.497 12.371-1.497 4.225 0 6.451.876 12.191.876 5.738 0 17.936-.876 21.843-.876 3.905 0 13.39.797 18.653.797 5.259 0 13.395-1.174 14.3-.987.394.082 2.94 3.123 2.94 3.123zM84.846 3.612c-.856.426-.464 1.156-.464 1.156s.562.472 1.154.13c.499-.291 6.152-2.432 14.245-2.432 8.094 0 14.653 2.774 15.292 2.9.646.129 1.168-.736.595-1.2-.42-.341-7.652-3.028-15.974-3.028-7.576 0-13.984 2.045-14.848 2.474zm28.377 5.63c-1.074-1.81.57-1.913.362-2.742-.16-.66-6.531-2.933-13.762-2.933-6.468 0-13.404 1.823-13.662 2.216-.6.94.689.902.656 2.207-.04 1.597-1.286 2.667-1.718 3.129-1.648 1.743-3.749 2.63-5.201 4.577-.11.145-.219.8-.07 1.002.382.51 1.283-.054 1.499-.224 3.055-2.383 5.922-3.338 9.386-4.411.86-.27 5.224-1.178 10.855-.937 4.978.213 9.568 1.51 13.563 3.848 1.596.932 3.02 2.092 4.534 3.345.55.461.98-.213.999-.464.02-.29-.217-.7-.367-.944-1.15-1.913-3.685-3.642-5.443-5.698-.87-1.02-1.305-1.387-1.631-1.97zM5.1 6.67c.866.424 3.182 1.652 5.75 1.799 2.309.132 21.649.338 22.064.363 3.99 0 9.727.12 13.705.12 1.58.023 3.02.325 4.58.325.568-.388.025-.665-.391-.794l-2.52-.656c-2.36-.744-4.71-1.206-7.257-1.566-1.967-.282-4.292-.539-6.373-.64-3.54.122-8.88.005-10.319-.405-.259-.063-.32-.782.063-.857 1.108-.307 8.595-.23 9.605-.23 1.373 0 3.677.145 5 .227 1.945.122 3.91.469 5.73.867 2.138.47 3.932.935 6.071 1.44 1.248.295 2.602.373 3.94.478l4.191.01c1.942 0 3.951.075 5.858.133 2.774.086 5.529.035 8.1.5.696.126 1.36.371 2.022.587 1.996.649 4.622 2.277 3.679 4.909-.118.326-1.59 2.125-2.045 2.982-.237.43-.889 2.1-.948 2.909-.134 1.072-.242 1.9.313 2.286.085.06.19.04.31-.026a20.474 20.474 0 0 1 1.83-2.218c.225-.6-.45-1.361.164-2.385.449-.796.66-1.56 1.39-2.574.803-1.138 4.035-3.813 4.45-4.274.31-.356.904-.946 1.118-1.351.52-.806-.409-1.874-1.032-2.558a5.477 5.477 0 0 0-1.786-1.303c-.917-.412-3.099-.67-4.361-.815-.928-.107-1.897-.114-2.856-.204-1.54-.147-3.223-.084-4.747-.058l-2.441.007c-3.177.148-6.252.359-9.514.359-1.82 0-3.655-.136-5.444-.22-1.775-.082-3.493-.12-5.268-.2-3.455-.166-6.62-.466-10.197-.466-1.054-.047-2.927.024-4.034.042-1.998.035-6.623.235-8.569.387-.381.028-13.298.17-13.298.17-1.803-.079-3.958-.31-5.707-.474-.826.065-1.878 1.857-2.064 2.332-.06.148.91.897 1.238 1.042zm68.284 21.428c.321-1.806.964-3.535 1.892-5.153-.16-.424-1.027-.094-1.462.014-.42.332-.967 1.611-1.297 2.096-.61.895-2.363 1.886-1.187 2.385.87.362 1.718.852 2.054.658zm1.41 9.56a15.9 15.9 0 0 1-1.524-4.91c-.597-.074-1.836 4.447-1.309 5.095.933.783 2.661.13 2.833-.185zM53.78 12.527c-.047.218-.017.475.115.63.195.232 1.434.768 2.237.63 1.275-.307 2.384-.712 3.57-1.094.41-.12.947-.187 1.243-.513.324-.358.11-.754-.146-1.06-.266-.31-.68-.497-1.067-.406-1.286.396-2.614.59-3.954.839-.525.09-1.215.119-1.641.414-.195.136-.303.342-.357.56zm-.267-2.512c.52.569 2.064-.088 3.027-.174.65-.059 3.383-.052 3.345-.69-.058-.925-1.995-.636-3.3-.716-1.258-.095-2.055-.172-3.183-.123-.785.033-.282 1.277.111 1.703zm2.867 5.473c-.216.236-.272.539-.195.869.05.22.148.55.304.723.31.352 1.13.68 1.683.68.308-.01.782-.106.982-.185l2.718-1.46c.31-.166.71-.215.964-.477.864-.888-.776-2.087-1.512-1.963-1.234.239-2.332.766-3.493 1.155-.48.157-1.096.27-1.45.658zm3.061 4.02c-.18.234-.176.517-.086.8.07.226.134.46.308.633.405.406 1.31.417 1.919.417.165-.063.332-.129.5-.195.324-.18.585-.454.89-.688.622-.503 1.098-.86 1.722-1.36.318-.223 1.048-.406 1.253-.755.524-.904-1.382-1.522-2.006-1.508-.542.025-4.235 2.311-4.5 2.655zm3.868 3.23c-.27.667.149 1.023.583 1.345.4.298 1.625.108 2.168-.298.397-.298 2.948-2.58 3.1-2.847.738-1.303-1.128-1.493-1.986-1.493-.55 0-2.153 1.634-2.746 2.113-.282.234-.975.84-1.119 1.18zm5.007 1.187c-.497.504-1.536 1.37-.65 1.99.367.256.977.465 1.38.348.325-.15.63-.179.914-.418.28-.234.468-.58.657-.878.221-.333.965-1.373 1.151-1.535.384-.338.95-.594.573-1.277-.167-.31-1.595-.538-1.997-.307-.427.246-.954.924-1.291 1.286-.25.265-.492.53-.737.79zm6.483-6.173c.322-1.25 1.224-3.165 1.66-3.919.277-.445.613-.794.74-1.326.01-.037.016-.072.023-.11.073-.56-.282-1.02-.663-1.363-.625-.569-1.47-.918-2.252-1.178-2.308-.766-4.779-.836-7.426-.958-1.78-.087-3.547-.12-5.362-.12-.347 0-.649.076-.7.422-.066.426-.003 1.104.721 1.122.854.014 1.895-1.117 2.393-.402.564.805-2.35 1.29-1.885 2.269.6 1.25 1.782.105 1.998.028.588-.274 2.422-1.902 3.167-.83.66.945-2.351 2.315-2.716 2.764-.103.132-.316.839-.234 1.012.658 1.457 2.32.062 3.434-1.154.414-.452.715-.7 1.128-.808.571-.148 1.07-.035 1.223.475a.829.829 0 0 1-.21.832c-.232.222-2.827 2.089-2.74 2.646.178 1.132.865 1.281 1.368 1.04.54-.239 2.059-2.808 2.955-2.469.237.092.533.132.627.359.132.311.08.747-.117 1.01-.252.337-.726.78-1.046 1.06-.273.24-.576.523-.739.82-.423.757.205 1.103.899 1.103.244 0 .376-.135.545-.28.423-.359.863-1.956 1.72-1.53.899.45-.764 1.714-.599 2.611.245.677 1.324.815 1.622.312.33-.804.134-2.043.466-3.438zm-61.057-3.398c.582.124 37.423-2.021 37.481-2.03.498-.227 1.85-.6 1.733-1.385-.033-.224-.388-.447-.585-.527-.416-.156-4.956.256-5.294.258-3.129 0-36.622-.48-37.468-.48-.461.173-.663.403-.724.91-.05.37.233 1.224 1.135 1.69.645.293 3.092 1.43 3.722 1.564zm2.466 4.33c1.606.45 3.049.96 4.913.96.122-.01 32.458-4.118 33.046-4.118.084-.082.167-.14.153-.271-.026-.293-1.157-1.188-1.44-1.317-.208-.093-.45-.098-.709-.098-.832.085-6.913.668-9.127.808-1.185.096-21.867 1.377-23.67 1.403-.334.026-4.706-.021-5.16.363-.235.2.026 1.377.252 1.593.42.405 1.19.524 1.742.677zM26.9 24.777c1.74.059 9.453-1.163 10.73-1.478 1.986-.484 17.112-4.54 17.5-4.796.299-.2.054-1.106-.317-1.567-.325-.4-2.252.161-3.084.311-1.806.316-3.606.628-5.412.942-2.853.52-14.078 2.192-16.845 2.5-1.79.198-3.578.404-5.411.55-3.355-.162-3.947.389-3.522 1.28.184.385.365.893.732 1.17.448.334 4.184 1.088 5.63 1.088zm2.244 3.575c.554.822 7.059 1.097 9.952.335 1.17-.342 18.395-6.359 18.748-6.807.361-.462.272-1.612.223-1.821-.125-.53-.637-.608-1.164-.608l-.655.183c-.571.242-13.834 4.345-20.12 5.68-1.814.384-3.65.632-5.52.906-.574.085-1.788.005-2.188.343-.258.232.505 1.456.724 1.789zm18.063 3.924c1.632-.708 8.531-4.326 10.352-5.307.858-.48 4.628-2.232 4.577-2.926-.083-1.094-1.851-1.054-2.827-1.054-.861.038-3.963 1.823-5.198 2.336-3.461 1.466-7.071 2.71-10.684 3.909-.956.29-1.918.583-2.878.868-.6.17-1.317.265-1.85.56-.158.082-.292.225-.318.406-.054.32.216.57.442.74.275.201.538.435.858.555.501.18 1.084.168 1.67.196 1.367.064 4.082.49 5.856-.283zm8.94 1.895c.544-.406 6.968-5.437 7.474-5.856.615-.525 2.623-1.56 2.4-1.995-.254-.495-2.443-.753-3.028-.568-.62.174-14.812 7.922-15.016 8.257-.341.548.707 1.398 1.23 1.513.777.17 5.077-.244 6.94-1.351zm2.794 2.662c.129-.012 3.05-.384 4.408-1.168.623-.362 6.678-6.42 6.866-6.686.085-.12.148-.735.122-.789-.32-.482-1.326-.15-1.892-.222-.435-.06-1.056-.185-1.483-.25-.393-.05-2.654 2.742-8.042 6.494-.463.318-1.514.988-1.744 1.463-.337.926 1.201 1.158 1.765 1.158zm5.985.09c0 .58.889.904 2.14.588.873-.218 2.084-.173 2.878-.54.546-.25 1.47-2.578 2.316-4.206.557-1.075.642-.885.872-1.707l.022-.057-.008-.252c0-.548.029-1.094.09-1.63a.545.545 0 0 0-.414-.183c-.815-.125-1.69.641-2.362 1.57-.5.753-5.53 5.672-5.534 6.416zm18.449 19.336a.178.178 0 0 0 .16-.225c-.045-.166-.19-.264-.327-.351l-1.987-.93a29.222 29.222 0 0 1-3.333-1.874 35.084 35.084 0 0 1-6.95-5.874c-.974-1.066-1.625-2.169-2.506-3.443-.833-1.197-1.937-3.391-2.217-3.843-.146-.24-.35-.394-.574-.263-.245.085-.16.522-.091.747.12.394 1.697 2.956 2.395 3.984.6.886 1.173 1.795 1.885 2.624 2.692 3.148 5.942 5.942 9.44 7.733.534.268 3.444 1.776 4.105 1.715zm.728-2.172c.585-.141 3.45-4.633 3.747-4.97a.599.599 0 0 0 .094-.49l-.033-.068c-5.63-2.068-10.132-5.612-12.624-9.964-.37-.04-.761.279-1.04.44-.434.249-1.07.544-1.62.412-.868-.206-1.1-1.182-1.836-1.253-.433-.018-3.134.284-3.157 1.108-.029 1.169 2.414 4.001 3.279 5.104 2.733 3.509 6.267 6.207 10.002 8.22.708.385 2.675 1.64 3.188 1.46zm3.066 3.74c.39-.406.743-1.168.955-1.666.625-1.522 2.402-5.286 2.477-5.788.038-.26.116-.653-.073-.982-.418-.114-.839-.234-1.25-.364-.221.11-.398.29-.503.44-.256.366-2.436 3.912-3.32 5.396-.289.501-.665.97-.766 1.495-.077.4.303 1.564.746 1.791.528.27 1.386.036 1.734-.323zm5.17-.66c.378-1.6 1.542-5.589 1.542-6.1-.005-.276.007-.702-.259-1-.38-.063-.76-.13-1.126-.212-.27.147-.463.404-.564.6-.195.4-1.79 4.243-2.43 5.847-.208.542-.506 1.061-.524 1.598-.015.407.547 1.497 1.022 1.65.564.186 1.37-.182 1.657-.585.325-.465.55-1.271.682-1.798zm4.305.389c.089-1.644.54-5.773.449-6.277-.043-.232-.094-.58-.31-.826a46.725 46.725 0 0 1-1.272-.118 1.396 1.396 0 0 0-.44.68c-.122.424-1.025 4.487-1.38 6.178-.103.567-.305 1.13-.23 1.663.056.4.792 1.382 1.29 1.45.588.085 1.319-.417 1.533-.867.237-.51.32-1.346.36-1.883zm.563-12.566c1.59.125 3.222.006 4.833.006.137-.138 1.137-.136 1.412-.136.129-.126.832-.136 1.057-.136.132-.143.57-.142.778-.142.08-.082.231-.088.36-.088.13-.135.441-.136.64-.136.096-.105.348-.136.5-.136.09-.098.328-.143.471-.143.093-.1.354-.136.498-.136.144-.157.559-.272.778-.272.108-.15.307-.172.46-.242.388-.187.773-.376 1.157-.563 1.342-.79 2.549-1.86 3.258-3.253.142-.27.343-.53.343-.868.11-.11.137-.324.137-.495.162-.16.136-.528.136-.775.18-.2.092-.814.088-1.102-.04-2.738-2.18-5.377-4.565-6.394-.045-.019-.156-.022-.156-.08.174-.12.416-.36.647-.36.176-.262.752-.488 1.02-.718.561-.471 1.916-1.797 1.916-2.51a.502.502 0 0 0 .136-.365c.113-.105.143-.309.143-.47.198-.207.137-.736.137-1.048.176-.19.056-.643.018-.86-.24-1.305-.772-2.398-1.672-3.358-.205-.218-.433-.377-.635-.583-.637-.658-1.47-1.08-2.25-1.468-2.192-1.091-4.742-1.673-7.397-1.797-1.29-.002-2.572-.006-3.856-.006-.186.108-.5.036-.721.062-.962.126-1.924.246-2.855.421-2.697.499-5.293 1.553-7.489 3.055-.557.382-1.197.817-1.642 1.362a.474.474 0 0 1-.043.069c-.16.264-.44.471-.548.762-.042.117-.082.296-.037.427.15.429.95 1.164 1.35 1.4.197.12.535.347.566.595.042.38-.045.743-.069 1.078-.005.452-.006.905-.006 1.357v9.311c-.007.388-.013.772-.025 1.159-.052.191-.82.927-1 1.133-.241.274-.363.62-.56.911-.003.024-.016.041-.026.062.115.108.094.315.175.446.232.382.62.788.988 1.072 3.008 2.34 7.53 3.631 11.55 3.952zm3.65 14.523c.156-.54.107-1.38.058-1.916-.165-1.635-.37-5.787-.536-6.27-.085-.23-.193-.571-.46-.784-.18.004-.36.004-.542.004-.197 0-.4 0-.606-.004-.277.217-.405.588-.435.84-.056.439-.306 4.592-.39 6.315-.014.578-.13 1.17.03 1.681.116.39 1.004 1.237 1.502 1.23.598-.009 1.242-.618 1.38-1.096zm4.485-.395c.087-.56-.06-1.382-.174-1.914-.37-1.6-1.076-5.696-1.3-6.15-.11-.223-.263-.553-.557-.727-.364.043-.73.076-1.1.106-.275.25-.362.656-.362.918 0 .445.254 4.598.383 6.322.052.572.017 1.17.233 1.66.167.37 1.15 1.11 1.64 1.038.593-.08 1.162-.763 1.237-1.253zm3.639.446c.581-.182 1.032-.973 1.02-1.483-.01-.578-.305-1.385-.52-1.897-.655-1.557-2.103-5.564-2.413-5.986-.095-.124-.212-.295-.37-.433-.505.11-1.01.21-1.53.297a1.444 1.444 0 0 0-.087.8c.08.448 1.082 4.594 1.518 6.311.158.57.229 1.182.539 1.636.233.348 1.354.917 1.843.755zm4.344-1.134c.555-.258.905-1.096.837-1.6-.085-.574-.482-1.337-.752-1.822-.841-1.464-2.772-5.272-3.13-5.652-.126-.13-.286-.306-.488-.43-.449.15-.91.285-1.373.414-.136.314-.1.681-.028.913.135.436 1.634 4.434 2.28 6.088.226.548.37 1.145.731 1.56.275.315 1.46.744 1.923.529zm1.015-4.576c.141.15.344.208.567.208l.717-.281c.846-.35 1.695-.752 2.494-1.195 3.716-2.063 7.043-4.491 9.725-8.08 1.53-2.045 2.895-3.952 2.917-4.401-.038-.546-2.269-1.368-2.579-1.244-.57.26-.867 1.166-1.596 1.366-.696.192-1.408-.087-1.972-.363-.325-.16-1.07-.797-1.495-.68-2.522 4.033-6.794 7.32-12.076 9.308-.103.176-.134.43-.024.577.137.184 3.035 4.49 3.322 4.785zm27.525-42.619c-1.35-.246-2.732-.466-3.134-.492a1.017 1.017 0 0 0-.977.672c-.134.361-.18.853.133 1.103.325.259.828.33 1.235.437l1.964.505c.758.185 1.387.29 2.264.377.678.064 1.265-.086 1.441-.627.196-.628.125-1.048-.367-1.326-.23-.129-1.177-.396-2.559-.649zm-2.859-2.407c-.058.926 2.614.737 3.265.795.966.087 2.847.777 3.207.457.435-.384.898-2.208.117-2.243-1.133-.047-1.56.079-2.822.175-1.299.08-3.708-.086-3.767.816zm1.437 6.164c-1.19-.403-3.072-.958-3.406-.87-.519.17-1.695.807-1.189 1.375.2.23.843.446 1.118.54.342.147.318.19.657.337.383.175.76.353 1.142.526.71.345 1.09.72 1.984.72 1.055-.023 1.528.138 2.05-.855.142-.258.047-.546-.103-.74-.248-.321-1.645-.827-2.253-1.033zm-12.557 20.8c.254.42.465.836.863 1.188.795.698 2.61 1.13 3.777 1.13l.195-.025c.318-.25.376-.52.163-.883l-1.15-1.478-2.51-3.36-1.082-1.52c-.21-.317-.357-.701-.651-.956-.355-.312-1.229-.511-1.741-.511-.08.012-.14.087-.182.199a16.112 16.112 0 0 1 .017 2.054c.014.065.032.122.047.164.125.368.83 1.4 1.027 1.738zm-1.162 3.292c.79-.389-.454-5.52-1.051-5.445a.693.693 0 0 0-.379.196 15.968 15.968 0 0 1-1.563 4.289c.005.056.029.11.07.154.222.258 2.124 1.23 2.923.806zm3.077-18.211c.203.302 3.016 2.595 3.35 2.765.443.225 1.02.212 1.574.212.466-.01 1.429-.399 1.313-1.134-.028-.194-.16-.368-.308-.503-.429-.387-.956-.635-1.422-.959-.398-.266-.845-.604-1.243-.87-.363-.273-.681-.477-1.043-.748-.158-.078-.328-.09-.521-.101-.52.138-1.325-.084-1.65.4-.179.26-.216.682-.05.938zm1.534 5.27a.922.922 0 0 0 .453-1.317c-.575-.744-1.358-1.316-2.028-1.984-.325-.322-.63-.791-1.035-.978-.388-.176-.94-.118-1.415-.118-.47.115-1.01.312-.92.937.01.12.746.68 1.026.951.632.633 1.098 1.729 1.902 2.16.56.302 1.387.67 2.017.349zm1.62-7.533c.274.23 2.449 1.322 3.142 1.765.527.332.934.732 1.632.732.94-.03 1.274-.26 1.504-.398.407-.25.896-.868.544-1.351-.311-.43-.971-.616-1.423-.822-.498-.234-.994-.469-1.495-.703-.334-.166-1.678-.981-2.221-.981-.614.033-1.74.41-1.843 1.217-.028.207.007.417.16.541zm3.576-8.776c.849-.094 1.166-.489 1.105-.906-.055-.335-.402-.342-.677-.412-1.769 0-2.741-.224-4.468-.143-2.577.12-8.61 0-9.94 1.777-.347.463-.387 1.392-.315 1.933.052.309.8 2.064 1.718 3.195 1.898 2.66-.035 5.483.785 6.026.596.466 1.881-.196 1.944-.7.158-.54-1.357-1.895-.737-2.464.808-.747 1.66 1.425 2.238 1.503.624.14 1.568-.712 1.157-1.45-.165-.292-2.04-1.394-1.389-2.27.529-.708 1.454.197 2.042.684 1.125.932 1.933.658 2.233-.262.177-.548-3.37-2.123-2.482-3.021.963-.974 3.084 1.506 3.746 1.666.48.164 1.114-.333 1.206-.962.092-.665-3.358-1.821-2.852-2.673.512-.861 1.87.213 2.443.477.21.078.824.452 1.085.438.576 0 .813-.105.902-.754.113-.774-2.384-1.086-1.987-1.867.463-.925 1.654.124 2.243.185zm-10.864 13.459c-.137-.124-1.61-.841-1.935-.188a.498.498 0 0 0-.042.192 15.837 15.837 0 0 1 1.742 5.132c.018.014.028.03.04.042.406.34 2.27-1.1 2.315-1.583.054-.595-.905-1.705-1.274-2.23-.3-.426-.44-1.01-.846-1.365zm7.494 16.975c.132-.321.06-.518-.3-.553-.282.15-1.867 3.073-3.23 5.047-1.517 2.188-3.432 4.296-5.55 5.996-1.77 1.425-3.5 2.462-5.47 3.488-1.235.597-2.788 1.296-3.08 1.541-.39.321-.193.57.263.57a43.62 43.62 0 0 0 4.043-1.928c3.849-2.113 7.758-5.605 10.44-9.245 1.154-1.572 2.715-4.506 2.884-4.916zm4.916-2.606c.383-.192 1.333-.227 1.352-.808 0-.023 0-.051-.005-.077-.063-.552-1.086-1.273-1.49-1.652-1.606-1.532-3.21-3.065-4.819-4.598-.334-.339-.67-.676-1.007-1.013-.31-.35-.57-.74-.952-1.04-.505-.408-1.142-.708-1.85-.728-.528.163-1.04.788-.803 1.41.124.335.486.405.74.616.237.206.411.44.585.685 1.082 1.488 2.151 2.997 3.31 4.439.445.547.9 1.245 1.51 1.668.787.553 2.36 1.098 3.43 1.098zm7.908-.989c.418-.208 1.662-.59 1.453-1.264a.504.504 0 0 0-.036-.078c-.026-.04-.053-.084-.082-.124-.42-.464-1.053-.7-1.56-1.017-.953-.588-1.877-1.205-2.81-1.817-2.27-1.49-4.421-3.2-6.612-4.837-.809-.604-1.36-1.543-2.37-1.777-.058-.008-.11-.012-.167-.024-.044-.004-.09-.004-.136-.004-.05-.003-.09-.003-.14-.003-.142.073-.274.145-.375.286-.179.248-.24.586-.352.87-.111.254-.227.502-.341.753a.688.688 0 0 0 .02.436c.147.29.532.297.79.43.221.113.423.263.612.436 1.709 1.604 3.317 3.296 5.047 4.813.642.57 1.203 1.273 1.934 1.66.586.317 1.296.47 1.956.64 1.023.26 2.017.621 3.169.621zm9.066-1.99c.402-.248 1.358-1.062 1.067-1.58a.717.717 0 0 0-.322-.272c-.355-.119-.71-.24-1.065-.363-.613-.222-1.229-.45-1.84-.67a94.232 94.232 0 0 1-5.602-2.471 150.853 150.853 0 0 1-7.457-3.833c-.763-.434-1.526-.872-2.285-1.309-.063-.016-.129-.032-.193-.053-.058 0-.107-.005-.167-.007-.31.203-1.132.827-1.026 1.251.122.472 1.654 1.177 1.906 1.36 2.342 1.754 4.676 3.493 7.118 5.076 1.344.867 2.71 1.777 4.206 2.337 1.46.546 3.196.736 4.92.736.098-.007.202-.017.305-.023.143-.063.289-.12.435-.178zm9.322-3.702c.385-.272 1.29-1.204.91-1.684-.357-.44-1.87-.546-2.463-.677-1.3-.283-2.59-.586-3.856-.902-4.585-1.143-8.986-2.635-13.37-4.117-1.129-.413-2.259-.825-3.387-1.24-.5-.185-.982-.459-1.553-.477-.376.161-1.69.62-1.666.995.04.544.83.782 1.309.947.362.126.686.33 1.02.5.68.362 1.367.72 2.046 1.08l3.25 1.63c1.57.825 3.17 1.584 4.803 2.261 1.678.695 3.393 1.527 5.245 1.867 1.572.288 3.395.203 5.129.203.14-.011.28-.018.416-.028l.696-.028c.122-.01.24-.019.36-.026.073-.014.147-.018.223-.03.072-.01.147-.016.223-.028.054-.01.106-.017.162-.028.165-.073.334-.148.503-.218zm9.897-5.326c.066-.157.073-.36-.03-.5-.12-.153-.301-.197-.48-.247-.82-.11-1.643-.22-2.468-.332l-4.802-.772c-2.15-.358-4.307-.824-6.411-1.28-3.368-.728-6.676-1.464-9.958-2.304-1.525-.4-3.053-.796-4.58-1.194-.321-.1-.645-.196-.97-.297-.308-.11-.562-.25-.916-.274-.327.143-.652.288-.979.43-.446.179-1.567.417-1.3 1.094.219.554 5.506 2.11 7.125 2.686 4.218 1.452 7.826 2.692 12.271 3.668 3.23.71 6.67 1.51 10.244 1.51.146-.008.297-.015.438-.026.105-.01.202-.02.308-.026.059-.012.11-.02.167-.028.244-.124.484-.178.714-.335.358-.255.558-.634.834-.94.257-.281.64-.496.793-.833zm6.08-3.235c.413-.278 1.41-1.653.881-2.089-.418-.35-2.69-.279-3.394-.335-2.149-.169-4.286-.429-6.406-.632-3.047-.286-6.074-.822-9.074-1.206-3.56-.457-7.069-1.036-10.571-1.62-1.627-.278-3.258-.552-4.88-.833-.708-.168-1.234-.54-2.029-.54-.317.119-.696.282-.616.72.054.314.19.813.452 1.012.446.343 1.448.476 2.02.624 1.586.41 3.18.817 4.769 1.222 2.348.602 4.715 1.099 7.104 1.66a125.15 125.15 0 0 0 8.852 1.764c1.638.26 3.282.556 4.97.773.87.11 1.716.27 2.632.27.087-.008.167-.017.254-.028l.473-.026c.11-.01.219-.017.333-.029.08-.009.163-.016.247-.028.123-.007.245-.016.36-.026.125-.01.242-.02.362-.025.122-.014.24-.021.362-.03l.275-.029c.085-.009.167-.018.252-.025.082-.012.167-.02.249-.028.082-.012.164-.02.251-.03l.217-.026c.058-.008.113-.02.171-.029.054-.01.111-.016.167-.028.056-.01.11-.016.162-.028.059-.007.113-.019.172-.028.327-.15.677-.143.983-.347zm6.607-6.395c.08-.237.181-.57-.005-.784-.167-.187-.425-.22-.68-.232-1.33 0-2.662-.005-3.993-.005l-5.442-.2c-6.723-.313-13.399-.85-20.059-1.278a8362.68 8362.68 0 0 1-6.772-.523c-.933-.073-2.24-.251-3.216-.251-.153.068-.305.112-.428.24-.416.422-.517 1.118.29 1.118.326-.098 1.21.035 1.525.085.586.087 1.169.178 1.749.27l7.076 1.112c2.847.464 5.705.938 8.599 1.257 2.03.226 4.053.582 6.104.777 3.164.3 6.286.744 9.631.744.202-.007.407-.02.61-.026.117-.014.239-.02.36-.026.081-.014.17-.02.253-.03l.275-.03.303-.024c.087-.014.167-.02.251-.028.066-.015.13-.021.19-.03.06-.008.114-.02.172-.026l.163-.029c.056-.01.115-.016.169-.028.303-.077.607-.157.905-.237 1.06-.324 1.601-.767 1.97-1.816zm4.542-4.253c.47-.41-.07-1.897-.522-2.17-.308-.186-4.029-.098-4.37-.079-1.363.003-2.722.007-4.08.007-2.323.108-4.815.042-7.212.08-3.157.049-10.426.108-10.795.136H160c-2.565 0-4.828-.01-7.391-.01-.435.02-3.033.09-3.853.085-.366-.01-1.03-.054-1.394 0-.606.093-1.595 1.365-.404 1.365.051-.011.108-.021.164-.028.12-.017.24-.035.362-.056.334-.103.77.021 1.11.047.635.044 1.276.093 1.913.138 1.676.115 3.35.227 5.022.344 1.2.096 2.406.197 3.608.29 8.798.554 17.491 1.338 26.61 1.338 2.109 0 3.991-.92 4.654-1.131.282-.091.875-.157 1.098-.356zm1.682-4.987c.764-.288 2.464-.817 2.473-1.106.014-.54-1.347-1.885-1.808-2.12-.333-.17-.71-.17-1.135-.17l-3.359.309c-2.227.178-4.488.426-6.742.57-1.206.072-2.428.018-3.66.044-.402-.07-.907-.13-1.53-.176-2.805-.216-8.352-.443-8.961-.478-1.237-.077-9.615-.182-12.362.052-1.792.15-3.557.26-5.23.34-3.755.18-7.479.42-11.348.36-2.658-.037-5.158-.513-7.715-.712a52.821 52.821 0 0 0-4.047-.143c-1.256.026-2.934.225-3.62.293-2.07.27-5.565.887-7.055 1.499a7.555 7.555 0 0 0-1.587.93c-.6.475-1.157 1.037-.933 1.963.115.463.247.7.528 1.08.323.428.678.786.995 1.22.769.87 1.57 1.815 2.436 2.527 1.476 1.216 3.44 3.766 3.662 5.099.108.672-1.067 1.396-.66 1.925.04.047.128.173.242.33.347.429.674.872.982 1.321.059.066.103.115.129.133.257.153.745-.704.76-.903l.225-1.162c0-.934-.252-1.87-.658-2.614a166.282 166.282 0 0 1-1.798-3.436c-.23-.41-.456-.974-.694-1.384-.67-1.902.341-2.904 1.93-3.717.75-.387 1.547-.651 2.39-.843.3-.059 2.19-.537 6.555-.53h7.848c.83-.007 3.324-.187 6.69-.911 1.814-.375 14.436-2.841 20.08-2.178.397.049.5.695 0 .847-.858.253-3.392.333-8.655.991-3.164.394-5.968 1.061-8.764 1.61-.237.044-.992.215-.895.578.092.34.703.225 1.009.225.1-.007 2.405-.201 3.968-.33 1.132-.066 3.671-.141 4.053-.141h5.02l.416-.026.665-.026h9.488c.122-.013 2.2-.046 2.607-.046 1.82 0 3.613-.042 5.44-.042 1.643 0 6.476-.127 6.744-.137.665 0 2.252-.016 2.482-.022.17.004 1.187-.006 1.33-.057.22-.07 1.5-.581 2.07-.836z"/></g></g></g></svg>